<svg width="226" height="228" viewBox="0 0 226 228" fill="none" xmlns="http://www.w3.org/2000/svg">
<path fill-rule="evenodd" clip-rule="evenodd" d="M143.27 -26.5777C180.053 -30.5819 219.411 -21.3654 243.092 9.48114C267.972 41.8893 275.471 88.4992 262.384 128.577C250.392 165.302 214.316 180.394 181.942 196.745C149.204 213.28 115.224 233.273 81.4657 219.954C42.9919 204.774 5.95459 170.721 2.72319 126.036C-0.313882 84.0374 40.1895 58.375 67.6268 28.5822C90.261 4.00472 111.626 -23.1329 143.27 -26.5777Z" stroke="#7A3358"/>
<path fill-rule="evenodd" clip-rule="evenodd" d="M144.46 -17.7532C181.35 -22.8495 221.387 -15.751 246.538 12.0418C272.963 41.2417 282.472 84.2936 270.968 122.041C260.426 156.632 224.714 172.009 192.783 188.42C160.494 205.014 127.099 224.87 92.53 213.748C53.1326 201.073 14.3911 170.798 9.26217 129.376C4.44164 90.4447 44.1715 65.0745 70.5645 36.3523C92.3372 12.658 112.724 -13.369 144.46 -17.7532Z" fill="#7A3358"/>
</svg>
